<svg width="23" height="23" viewBox="0 0 23 23" fill="none" xmlns="http://www.w3.org/2000/svg">
<path d="M14.375 12.4584H15.8125V15.1609L18.1508 16.5121L17.4321 17.758L14.375 15.9946V12.4584ZM18.2083 7.66671H4.79167V18.2084H9.26708C8.855 17.3363 8.625 16.3588 8.625 15.3334C8.625 13.5542 9.33177 11.8479 10.5898 10.5899C11.8479 9.33181 13.5542 8.62504 15.3333 8.62504C16.3587 8.62504 17.3362 8.85504 18.2083 9.26712V7.66671ZM4.79167 20.125C4.28333 20.125 3.79582 19.9231 3.43638 19.5637C3.07693 19.2042 2.875 18.7167 2.875 18.2084V4.79171C2.875 3.72796 3.72792 2.87504 4.79167 2.87504H5.75V0.958374H7.66667V2.87504H15.3333V0.958374H17.25V2.87504H18.2083C18.7167 2.87504 19.2042 3.07697 19.5636 3.43642C19.9231 3.79586 20.125 4.28338 20.125 4.79171V10.6375C21.3133 11.845 22.0417 13.503 22.0417 15.3334C22.0417 17.1125 21.3349 18.8188 20.0768 20.0769C18.8188 21.3349 17.1125 22.0417 15.3333 22.0417C13.5029 22.0417 11.845 21.3134 10.6375 20.125H4.79167ZM15.3333 10.6855C14.1006 10.6855 12.9184 11.1751 12.0468 12.0468C11.1751 12.9185 10.6854 14.1007 10.6854 15.3334C10.6854 17.9017 12.765 19.9813 15.3333 19.9813C15.9437 19.9813 16.5481 19.8611 17.112 19.6275C17.6759 19.3939 18.1883 19.0515 18.6199 18.6199C19.0515 18.1883 19.3939 17.676 19.6274 17.1121C19.861 16.5481 19.9813 15.9437 19.9813 15.3334C19.9813 12.765 17.9017 10.6855 15.3333 10.6855Z" fill="black"/>
</svg>
