<svg width="25" height="25" viewBox="0 0 25 25" fill="none" xmlns="http://www.w3.org/2000/svg">
<path d="M9.37504 22.9167C9.09877 22.9167 8.83382 22.8069 8.63847 22.6116C8.44312 22.4162 8.33337 22.1513 8.33337 21.875V18.75H4.16671C3.61417 18.75 3.08427 18.5305 2.69357 18.1398C2.30287 17.7491 2.08337 17.2192 2.08337 16.6667V4.16667C2.08337 3.61413 2.30287 3.08423 2.69357 2.69353C3.08427 2.30283 3.61417 2.08333 4.16671 2.08333H20.8334C21.3859 2.08333 21.9158 2.30283 22.3065 2.69353C22.6972 3.08423 22.9167 3.61413 22.9167 4.16667V16.6667C22.9167 17.2192 22.6972 17.7491 22.3065 18.1398C21.9158 18.5305 21.3859 18.75 20.8334 18.75H14.4792L10.625 22.6146C10.4167 22.8125 10.1563 22.9167 9.89587 22.9167H9.37504ZM10.4167 16.6667V19.875L13.625 16.6667H20.8334V4.16667H4.16671V16.6667H10.4167ZM6.25004 7.29167H18.75V9.375H6.25004V7.29167ZM6.25004 11.4583H15.625V13.5417H6.25004V11.4583Z" fill="black"/>
</svg>
