<svg width="40" height="40" viewBox="0 0 40 40" fill="none" xmlns="http://www.w3.org/2000/svg">
<path d="M20 33.3334C12.65 33.3334 6.66671 27.35 6.66671 20C6.66671 12.65 12.65 6.66671 20 6.66671C27.35 6.66671 33.3334 12.65 33.3334 20C33.3334 27.35 27.35 33.3334 20 33.3334ZM20 3.33337C10.7834 3.33337 3.33337 10.7834 3.33337 20C3.33337 29.2167 10.7834 36.6667 20 36.6667C29.2167 36.6667 36.6667 29.2167 36.6667 20C36.6667 10.7834 29.2167 3.33337 20 3.33337ZM24.3167 13.3334L20 17.65L15.6834 13.3334L13.3334 15.6834L17.65 20L13.3334 24.3167L15.6834 26.6667L20 22.35L24.3167 26.6667L26.6667 24.3167L22.35 20L26.6667 15.6834L24.3167 13.3334Z" fill="#A54B4B"/>
</svg>
