<svg width="33" height="30" viewBox="0 0 33 30" fill="none" xmlns="http://www.w3.org/2000/svg">
<path d="M11 16.25C8.4425 16.25 6.31125 17.85 5.6925 20H2.75V22.5H5.6925C6.31125 24.65 8.4425 26.25 11 26.25C13.5575 26.25 15.6887 24.65 16.3075 22.5H30.25V20H16.3075C15.6887 17.85 13.5575 16.25 11 16.25ZM11 23.75C9.4875 23.75 8.25 22.625 8.25 21.25C8.25 19.875 9.4875 18.75 11 18.75C12.5125 18.75 13.75 19.875 13.75 21.25C13.75 22.625 12.5125 23.75 11 23.75ZM27.3075 7.5C26.6888 5.35 24.5575 3.75 22 3.75C19.4425 3.75 17.3113 5.35 16.6925 7.5H2.75V10H16.6925C17.3113 12.15 19.4425 13.75 22 13.75C24.5575 13.75 26.6888 12.15 27.3075 10H30.25V7.5H27.3075ZM22 11.25C20.4875 11.25 19.25 10.125 19.25 8.75C19.25 7.375 20.4875 6.25 22 6.25C23.5125 6.25 24.75 7.375 24.75 8.75C24.75 10.125 23.5125 11.25 22 11.25Z" fill="black"/>
</svg>
