<svg width="47" height="47" viewBox="0 0 47 47" fill="none" xmlns="http://www.w3.org/2000/svg">
<path fill-rule="evenodd" clip-rule="evenodd" d="M44.8636 23.5C44.8636 29.4763 42.4097 34.8794 38.4545 38.7567V37.3864V31.5114C38.4545 27.0868 34.8677 23.5 30.4432 23.5H24.5682V21.3636V14.9545C24.5682 10.825 21.2205 7.47727 17.0909 7.47727L10.6818 7.47727L9.36889 7.47727C13.1349 4.15329 18.0819 2.13636 23.5 2.13636C35.2988 2.13636 44.8636 11.7012 44.8636 23.5ZM8.54546 8.2433C4.59027 12.1206 2.13636 17.5237 2.13636 23.5C2.13636 35.2988 11.7012 44.8636 23.5 44.8636C28.9181 44.8636 33.8651 42.8467 37.6311 39.5227H36.3182H29.9091C25.7795 39.5227 22.4318 36.175 22.4318 32.0455V25.6364V23.5H16.5568C12.1323 23.5 8.54545 19.9132 8.54546 15.4886V9.61364V8.2433ZM47 23.5C47 36.4787 36.4787 47 23.5 47C10.5213 47 0 36.4787 0 23.5C0 10.5213 10.5213 0 23.5 0C36.4787 0 47 10.5213 47 23.5ZM16.9743 20.2955H14.17C14.0229 20.2955 13.9494 20.2173 13.9494 20.0609V19.4744C13.9494 19.3292 14.0229 19.2566 14.17 19.2566H16.8168C17.636 19.2566 18.0457 18.9326 18.0457 18.2848V17.9664C18.0457 17.3744 17.7778 16.9666 17.2422 16.7432L15.3831 15.9054C14.8474 15.6709 14.464 15.3972 14.233 15.0844C14.0019 14.7605 13.8864 14.336 13.8864 13.811C13.8864 12.437 14.5953 11.75 16.0133 11.75H18.5971C18.7441 11.75 18.8176 11.8282 18.8176 11.9846V12.571C18.8176 12.7163 18.7441 12.7889 18.5971 12.7889H16.2181C15.84 12.7889 15.5511 12.8726 15.3516 13.0402C15.1625 13.2078 15.068 13.4032 15.068 13.6266V13.9115C15.068 14.3807 15.3673 14.7381 15.966 14.9839L17.8251 15.8719C18.3713 16.0953 18.7389 16.3914 18.9279 16.76C19.1275 17.1286 19.2273 17.6369 19.2273 18.2848C19.2273 19.6252 18.4763 20.2955 16.9743 20.2955ZM28.5051 35.25H27.9495C27.8317 35.25 27.7727 35.1957 27.7727 35.0872V27.9355C27.7727 27.827 27.8317 27.7727 27.9495 27.7727H28.4672C28.5682 27.7727 28.6355 27.8037 28.6692 27.8658L32.154 33.5057H32.2045V27.9355C32.2045 27.827 32.2635 27.7727 32.3813 27.7727H32.9369C33.0547 27.7727 33.1136 27.827 33.1136 27.9355V35.0872C33.1136 35.1957 33.0547 35.25 32.9369 35.25H32.4697C32.3771 35.25 32.2887 35.1996 32.2045 35.0988L28.7323 29.517H28.6818V35.0872C28.6818 35.1957 28.6229 35.25 28.5051 35.25ZM30.4432 25.6364H24.5682V32.0455C24.5682 34.9952 26.9594 37.3864 29.9091 37.3864H36.3182V31.5114C36.3182 28.2667 33.6879 25.6364 30.4432 25.6364ZM22.4318 21.3636H16.5568C13.3121 21.3636 10.6818 18.7333 10.6818 15.4886V9.61364H17.0909C20.0406 9.61364 22.4318 12.0048 22.4318 14.9545V21.3636Z" fill="white"/>
</svg>
