<svg width="19" height="19" viewBox="0 0 19 19" fill="none" xmlns="http://www.w3.org/2000/svg">
<path d="M11.875 10.2917H13.0625V12.5242L14.9942 13.6405L14.4004 14.6697L11.875 13.213V10.2917ZM15.0417 6.33341H3.95833V15.0417H7.65542C7.315 14.3213 7.125 13.5138 7.125 12.6667C7.125 11.197 7.70885 9.78746 8.74812 8.7482C9.78738 7.70893 11.1969 7.12508 12.6667 7.12508C13.5137 7.12508 14.3212 7.31508 15.0417 7.6555V6.33341ZM3.95833 16.6251C3.53841 16.6251 3.13568 16.4583 2.83875 16.1613C2.54181 15.8644 2.375 15.4617 2.375 15.0417V3.95841C2.375 3.07966 3.07958 2.37508 3.95833 2.37508H4.75V0.791748H6.33333V2.37508H12.6667V0.791748H14.25V2.37508H15.0417C15.4616 2.37508 15.8643 2.5419 16.1613 2.83883C16.4582 3.13576 16.625 3.53849 16.625 3.95841V8.78758C17.6067 9.78508 18.2083 11.1547 18.2083 12.6667C18.2083 14.1365 17.6245 15.546 16.5852 16.5853C15.546 17.6246 14.1364 18.2084 12.6667 18.2084C11.1546 18.2084 9.785 17.6067 8.7875 16.6251H3.95833ZM12.6667 8.82716C11.6483 8.82716 10.6717 9.23169 9.95167 9.95175C9.23161 10.6718 8.82708 11.6484 8.82708 12.6667C8.82708 14.7884 10.545 16.5063 12.6667 16.5063C13.1709 16.5063 13.6702 16.407 14.136 16.2141C14.6019 16.0211 15.0251 15.7383 15.3817 15.3817C15.7382 15.0252 16.021 14.6019 16.214 14.1361C16.4069 13.6703 16.5062 13.171 16.5062 12.6667C16.5062 10.5451 14.7883 8.82716 12.6667 8.82716Z" fill="white"/>
</svg>
