<svg width="222" height="222" viewBox="0 0 222 222" fill="none" xmlns="http://www.w3.org/2000/svg">
<path fill-rule="evenodd" clip-rule="evenodd" d="M211.909 111C211.909 139.228 200.318 164.749 181.636 183.064V176.591V148.841C181.636 127.942 164.694 111 143.795 111H116.045V100.909V70.6364C116.045 51.1307 100.233 35.3182 80.7273 35.3182L50.4546 35.3182L44.2531 35.3182C62.0417 19.6176 85.4083 10.0909 111 10.0909C166.731 10.0909 211.909 55.2694 211.909 111ZM40.3636 38.9364C21.6817 57.2507 10.0909 82.7717 10.0909 111C10.0909 166.731 55.2694 211.909 111 211.909C136.592 211.909 159.958 202.382 177.747 186.682H171.545H141.273C121.767 186.682 105.955 170.869 105.955 151.364V121.091V111H78.2045C57.3056 111 40.3636 94.058 40.3636 73.1591V45.4091V38.9364ZM222 111C222 172.304 172.304 222 111 222C49.6964 222 0 172.304 0 111C0 49.6964 49.6964 0 111 0C172.304 0 222 49.6964 222 111ZM80.1766 95.8636H66.9304C66.2359 95.8636 65.8886 95.4943 65.8886 94.7556V91.9856C65.8886 91.2996 66.2359 90.9567 66.9304 90.9567H79.4324C83.3021 90.9567 85.2369 89.4266 85.2369 86.3663V84.8626C85.2369 82.0661 83.9718 80.1403 81.4417 79.085L72.6605 75.1278C70.1303 74.0198 68.3195 72.7271 67.2281 71.2497C66.1366 69.7196 65.5909 67.7146 65.5909 65.2348C65.5909 58.7449 68.9397 55.5 75.6372 55.5H87.8415C88.5361 55.5 88.8833 55.8693 88.8833 56.608V59.3781C88.8833 60.064 88.5361 60.407 87.8415 60.407H76.6046C74.8186 60.407 73.4543 60.8027 72.5117 61.5941C71.6187 62.3856 71.1722 63.3089 71.1722 64.3642V65.7096C71.1722 67.9257 72.5861 69.6141 75.4139 70.7749L84.1951 74.9695C86.7749 76.0248 88.5113 77.423 89.4043 79.1642C90.3469 80.9054 90.8182 83.3061 90.8182 86.3663C90.8182 92.6979 87.271 95.8636 80.1766 95.8636ZM134.641 166.5H132.017C131.46 166.5 131.182 166.244 131.182 165.731V131.951C131.182 131.438 131.46 131.182 132.017 131.182H134.462C134.939 131.182 135.257 131.328 135.416 131.621L151.877 158.261H152.115V131.951C152.115 131.438 152.393 131.182 152.95 131.182H155.574C156.131 131.182 156.409 131.438 156.409 131.951V165.731C156.409 166.244 156.131 166.5 155.574 166.5H153.368C152.93 166.5 152.513 166.262 152.115 165.786L135.714 139.421H135.476V165.731C135.476 166.244 135.198 166.5 134.641 166.5ZM143.795 121.091H116.045V151.364C116.045 165.296 127.34 176.591 141.273 176.591H171.545V148.841C171.545 133.515 159.121 121.091 143.795 121.091ZM105.955 100.909H78.2045C62.8786 100.909 50.4545 88.485 50.4546 73.1591V45.4091H80.7273C94.6599 45.4091 105.955 56.7037 105.955 70.6364V100.909Z" fill="black"/>
</svg>
